<?xml version="1.0" encoding="UTF-8"?>
<svg id="_图层_1" xmlns="http://www.w3.org/2000/svg" version="1.1" viewBox="0 0 500 400">
  <!-- Generator: Adobe Illustrator 29.0.1, SVG Export Plug-In . SVG Version: 2.1.0 Build 192)  -->
  <defs>
    <style>
      .st0 {
        fill: #c6b4c3;
      }

      .st1 {
        stroke: #8d6fc7;
      }

      .st1, .st2, .st3 {
        fill: none;
        stroke-miterlimit: 10;
      }

      .st2 {
        stroke: #65c8d0;
      }

      .st3 {
        stroke: #c6b4c3;
      }
    </style>
  </defs>
  <line class="st3" x1="54.5" y1="122.5" x2="197.7" y2="122.5"/>
  <line class="st3" x1="126.1" y1="50.9" x2="126.1" y2="164.6"/>
  <polygon class="st0" points="126.1 38.2 121.1 51.3 131.1 51.3 126.1 38.2"/>
  <polygon class="st0" points="210.8 122.5 197.7 117.6 197.7 127.5 210.8 122.5"/>
  <path class="st3" d="M53.7,157.3c5-34.9,14-76.3,30.8-78.3,22.9-2.7,39.6,70.5,67.8,69.9,12.8-.3,31.1-15.8,52.2-91.3"/>
  <g>
    <path class="st0" d="M191.6,137.7h1.1c0-.1.2-.1.2-.1h1.1v.4h-2.3v-.3h-.1ZM191.7,131.9h2.7v.4h-1.2c0,.1-.3.1-.3.1h-1.2v-.5h0ZM194.6,134.7l.2.2h0l-1.1,1.5-1.1,1.6h-.6l2.5-3.3h.1ZM194.5,135.2l-2.3-3.3h.9l1.9,2.7,2.4,3.4h-1l-2-2.8h.1ZM194.7,134.9h0l1.1-1.5,1.1-1.5h.5l-2.5,3.2-.2-.2h0ZM195.2,137.7h1.4c0-.1.2-.1.2-.1h1.2v.5h-2.8v-.3h0ZM195.6,131.9h2.3v.4h-1c0,.1-.2.1-.2.1h-1.1v-.5Z"/>
    <path class="st0" d="M202.1,140.4l-.2.2c-1.8-1.9-2.6-3.8-2.6-6.2s.8-4.3,2.6-6.2l.2.2c-1.6,2.2-2.1,3.8-2.1,6s.5,3.8,2.1,6h0Z"/>
    <path class="st0" d="M204.9,129.6l.7.4h6.2v.4h-6.2v8.3s-.2.3-.5.3h-.1v-9.3h0ZM211.7,132.5v.4h-6.5v-.4h6.5ZM211.7,135.1v.4h-6.5v-.4h6.5ZM211.7,137.7v.4h-6.5v-.4h6.5ZM209.2,128.2c0,.1-.2.3-.4.3-.3.5-.7,1.2-1.1,1.7h-.2c.2-.6.5-1.5.6-2.2l1.2.2h-.1ZM211.3,130l.4-.5.9.7c0,.1-.3.2-.5.2v8.1s-.3.3-.6.3h0v-8.9h-.2Z"/>
    <path class="st0" d="M223.2,133.6l.8.8c-.1.1-.2.1-.6.1-1.7,2.3-4.7,3.8-8.6,4.4v-.2c3.5-.8,6.5-2.4,8-4.7h-.1l.5-.4h0ZM217.8,131.3c-.8,1.1-1.8,1.9-2.8,2.4v-.2c.7-.6,1.6-1.7,2.3-3l1,.6c0,.1-.2.2-.5.1h0ZM225.8,129.8c0,.1-.1.2-.3.2h-10.3v-.4c-.1,0,9.1,0,9.1,0l.6-.7s.6.5,1,.9h-.1ZM223.1,134.5h-6.8v-.4c-.1,0,6.8,0,6.8,0v.4ZM225.9,138.2h0c-.3.2-.5.4-.6.7-3.5-.6-6.2-2-7.6-4.6l.2-.2c1.4,2.3,4.5,3.6,8,4.1h0ZM218.9,133.7h0v-4h.6v3.8s-.2.2-.5.2h-.1ZM220.5,129.5c-.2-.5-.8-1.2-1.2-1.6h.1c2.2.6,1.8,2,1.1,1.6h0ZM221.5,133.7h0v-4h.6v3.8s-.2.2-.5.2h-.1ZM225,133.3c-.3-.8-1.5-1.8-2.4-2.4h.1c3.4.9,3.1,2.8,2.2,2.4h0Z"/>
    <path class="st0" d="M236.3,132.1l.5-.6s.6.4.9.8c0,.1-.1.2-.3.2h-10.3v-.4c-.1,0,9.1,0,9.1,0h.1ZM236.3,138.3l.5-.7s.6.5,1,.8c0,.1-.1.2-.3.2h-10.3v-.4c-.1,0,9.1,0,9.1,0h0ZM235.6,137l.5-.6s.5.4.9.8c0,.1-.1.2-.3.2h-8.7v-.4c-.1,0,7.6,0,7.6,0ZM228.9,132.9l.7.3h6.1v.4h-6.2v2.8s-.3.2-.5.2h-.1v-3.7h0ZM229,128.3l.7.3h5.9v.4h-5.9v2.7s-.3.2-.5.2h-.1v-3.6h0ZM235.6,134.5v.4h-6.4v-.4h6.4ZM235.6,135.7v.4h-6.4v-.4h6.4ZM235.4,129.8v.4h-6.1v-.4h6.1ZM235.4,131v.4h-6.1v-.4h6.1ZM232.7,133.2v5.2h-.6v-5.2h.6ZM234.9,128.6l.4-.4.9.7s-.3.2-.5.2v2.5s-.3.2-.6.2h0v-3.2h-.2ZM235.1,133.2l.4-.4.9.7c0,.1-.3.2-.5.2v2.5s-.4.2-.6.2h0v-3.2h-.2Z"/>
    <path class="st0" d="M238.7,128.4l.2-.2c1.8,1.9,2.6,3.8,2.6,6.2s-.8,4.3-2.6,6.2l-.2-.2c1.6-2.2,2.1-3.8,2.1-6s-.5-3.8-2.1-6h0Z"/>
  </g>
  <g>
    <path class="st0" d="M134.6,64.6c0-.3.3-.4.6-.4s.6.2.8.4l.3.3-.4.2-.2-.2c.8-.2,1.4-1,1.9-2.2l.3-.9h0c0,0,1.1-3.1,1.1-3.1l1-2.9h.5l-2.5,6.7c-.7,1.9-1.5,2.7-2.5,2.7s-1-.2-1.1-.6h.2ZM134.6,55.8h2.9v.3h-1.3c0,0-.4,0-.4,0h-1.2v-.5h0ZM135.3,55.8h.9l2,5.5v.2l-.3,1-2.7-6.7h.1ZM138.8,55.8h2.4v.3h-1c0,0-.2,0-.2,0h-1.3v-.4h.1Z"/>
    <path class="st0" d="M145.2,64.4l-.2.2c-1.8-1.9-2.6-3.8-2.6-6.2s.8-4.3,2.6-6.2l.2.2c-1.6,2.2-2.1,3.8-2.1,6s.5,3.8,2.1,6h0Z"/>
    <path class="st0" d="M147,62.9h-.1v-10.6l.7.4h8.4v.4h-8.4v9.6s-.2.3-.5.3h0ZM155.8,62.1h-8.6v-.4h8.6v.4ZM148.3,61.1l-.2-.2c3-1.7,2.9-4.2,2.9-7.3h1.1c0,.2-.1.4-.4.4,0,2.9,0,5.4-3.4,7h0ZM154.9,56.1c0,0-.1.2-.3.2h-6.3v-.4c-.1,0,5.1,0,5.1,0l.5-.6s.6.5.9.8h.1ZM154.1,60.7c-.4-1.1-1.8-2.7-2.8-3.7h.2c3.8,2.4,3.4,4.3,2.6,3.7ZM155.8,52.2l.9.7c0,0-.3.2-.5.2v9.5s-.3.3-.6.3h0v-10.2h-.1l.4-.5h0Z"/>
    <path class="st0" d="M166.4,57.6l.8.8c-.1,0-.2,0-.6,0-1.7,2.3-4.7,3.8-8.6,4.4v-.2c3.5-.8,6.5-2.4,8-4.7h-.1l.5-.4h0ZM160.9,55.3c-.8,1.1-1.8,2-2.8,2.4v-.2c.7-.6,1.6-1.7,2.3-3l1,.5c0,0-.2.2-.5,0h0v.2ZM168.9,53.7c0,0-.1.2-.3.2h-10.3v-.4c-.1,0,9.1,0,9.1,0l.6-.7s.6.5,1,.8h-.1ZM166.2,58.4h-6.8v-.4c-.1,0,6.8,0,6.8,0v.4ZM169.1,62.2h0c-.3.2-.5.4-.6.7-3.5-.6-6.2-2-7.6-4.6l.2-.2c1.4,2.3,4.5,3.6,8,4.1h0ZM162,57.7h0v-4h.6v3.8s-.2.2-.5.2h-.1ZM163.6,53.5c-.2-.5-.8-1.2-1.2-1.5h.1c2.2.6,1.8,2,1.1,1.5h0ZM164.6,57.7h0v-4h.6v3.8s-.2.2-.5.2h-.1ZM168.1,57.2c-.3-.8-1.5-1.8-2.4-2.4h.1c3.4.9,3.1,2.8,2.2,2.4h0Z"/>
    <path class="st0" d="M179.4,56.1l.5-.6s.6.5.9.8c0,0-.1.2-.3.2h-10.3v-.4c-.1,0,9.1,0,9.1,0h.1ZM179.4,62.2l.5-.7s.6.5,1,.8c0,0-.1.2-.3.2h-10.3v-.3c-.1,0,9.1,0,9.1,0ZM178.8,60.9l.5-.6s.5.4.9.8c0,0-.1.2-.3.2h-8.7v-.4c-.1,0,7.6,0,7.6,0ZM172.1,56.9l.7.3h6.1v.4h-6.2v2.8s-.3.2-.5.2h-.1v-3.7h0ZM172.1,52.2l.7.3h5.9v.3h-5.9v2.7s-.3.2-.5.2h-.1v-3.6h0ZM178.7,58.4v.4h-6.4v-.4h6.4ZM178.7,59.7v.3h-6.4v-.3h6.4ZM178.6,53.7v.4h-6.1v-.4h6.1ZM178.6,54.9v.3h-6.1v-.3h6.1ZM175.8,57.2v5.2h-.6v-5.2h.6ZM178.1,52.6l.4-.4.9.7s-.3.2-.5.2v2.5s-.3.2-.6.2h0v-3.2h-.2ZM178.2,57.2l.4-.4.9.7s-.3.2-.5.2v2.5s-.4.2-.6.2h0v-3.2h-.2Z"/>
    <path class="st0" d="M181.9,52.3l.2-.2c1.8,1.9,2.6,3.8,2.6,6.2s-.8,4.3-2.6,6.2l-.2-.2c1.6-2.2,2.1-3.8,2.1-6s-.5-3.8-2.1-6h0Z"/>
  </g>
  <polyline class="st1" points="79.2 122.5 79.2 81.1 126.1 81.1"/>
  <line class="st3" x1="181.6" y1="296.7" x2="324.8" y2="296.7"/>
  <line class="st3" x1="253.2" y1="225.1" x2="253.2" y2="338.8"/>
  <polygon class="st0" points="253.2 212.4 248.2 225.5 258.1 225.5 253.2 212.4"/>
  <polygon class="st0" points="337.9 296.7 324.8 291.7 324.8 301.6 337.9 296.7"/>
  <path class="st0" d="M318.7,311.8h1c0-.1.2-.1.2-.1h1.1v.4h-2.3v-.3h0ZM318.8,306h2.7v.4h-1.2c0,.1-.3.1-.3.1h-1.2v-.5h0ZM321.7,308.8l.2.2h0l-1.1,1.5-1.1,1.5h-.5l2.5-3.3h0ZM321.6,309.3l-2.3-3.3h1l1.9,2.7,2.4,3.4h-1l-2-2.8h0ZM321.8,309h0l1.1-1.5,1.1-1.5h.5l-2.5,3.2-.2-.2ZM322.3,311.8h1.4c0-.1.2-.1.2-.1h1.2v.5h-2.8v-.3h0ZM322.7,306h2.3v.4h-1c0,.1-.2.1-.2.1h-1.1v-.5h0Z"/>
  <path class="st0" d="M261.7,238.8c0-.3.3-.4.6-.4s.6.2.8.4l.3.3-.4.2-.2-.2c.8-.2,1.4-1,1.9-2.2l.3-.9h0c0-.1,1.1-3.1,1.1-3.1l1-2.9h.5l-2.5,6.7c-.7,1.9-1.5,2.7-2.5,2.7s-1-.2-1-.6h.1ZM261.7,230h2.9v.3h-1.3c0,.1-.4.1-.4.1h-1.2v-.4h0ZM262.4,230h1l2,5.5v.2l-.3,1-2.7-6.7h0ZM265.9,230h2.4v.3h-1c0,.1-.2.1-.2.1h-1.3v-.4h.1Z"/>
  <path class="st3" d="M179.4,338.6c64.1,2.9,110.1-10.2,112.7-27.4,3.3-21.8-88.8-46.3-85.7-56.7,2-6.6,43-9.9,69.7,12.1,23,19,28.2,51,40.7,49.7,4.3-.5,7.4-4.6,9.4-8.2"/>
  <line class="st3" x1="283.2" y1="122.9" x2="426.4" y2="122.9"/>
  <line class="st3" x1="354.8" y1="51.3" x2="354.8" y2="165"/>
  <polygon class="st0" points="354.8 38.6 349.8 51.7 359.7 51.7 354.8 38.6"/>
  <polygon class="st0" points="439.5 122.9 426.4 117.9 426.4 127.9 439.5 122.9"/>
  <path class="st0" d="M420.2,138.1h1c0-.1.2-.1.2-.1h1.1v.4h-2.3v-.3h0ZM420.3,132.2h2.7v.4h-1.2c0,.1-.3.1-.3.1h-1.2v-.5h0ZM423.3,135l.2.2h0l-1.1,1.5-1.1,1.6h-.5l2.5-3.3h0ZM423.2,135.5l-2.3-3.3h1l1.9,2.7,2.4,3.4h-1l-2-2.8h0ZM423.4,135.2h0l1.1-1.5,1.1-1.5h.5l-2.5,3.2-.2-.2ZM423.8,138.1h1.4c0-.1.2-.1.2-.1h1.2v.5h-2.8v-.3h0ZM424.2,132.2h2.3v.4h-1c0,.1-.2.1-.2.1h-1.1v-.5h0Z"/>
  <path class="st0" d="M363.2,65c0-.3.3-.4.6-.4s.6.2.8.4l.3.3-.4.2-.2-.2c.8-.2,1.4-1,1.9-2.2l.3-.9h0c0,0,1.1-3.1,1.1-3.1l1-2.9h.5l-2.5,6.7c-.7,1.9-1.5,2.7-2.5,2.7s-1-.2-1-.6h.1ZM363.3,56.2h2.9v.3h-1.3c0,0-.4,0-.4,0h-1.2v-.5h0ZM363.9,56.2h1l2,5.5v.2l-.3,1-2.7-6.7h0ZM367.5,56.2h2.4v.3h-1c0,0-.2,0-.2,0h-1.3v-.4h.1Z"/>
  <path class="st3" d="M399.6,160.6c-34.9-3.8-76.3-10.8-78.3-23.6-2.7-17.5,70.5-30.4,69.9-51.9-.3-9.8-15.8-23.8-91.3-40"/>
  <polyline class="st1" points="354.8 99.4 380.9 99.4 380.9 122.9"/>
  <polyline class="st1" points="354.8 158.3 380.9 158.3 380.9 122.9"/>
  <g>
    <path class="st0" d="M117.3,189.3h0v-10.6l.7.4h8.2v.4h-8.3v9.6c0,.1-.2.3-.5.3h0ZM126.1,188.5h-8.6v-.4h8.6v.4ZM124,180.3l.8.7c0,.1-.2.1-.5.1-1.2,1.8-3.2,3.2-5.9,4v-.2c2.2-.9,4.3-2.4,5.2-4.2h0l.5-.4h0ZM121,180c-.4,1-1.3,2.3-2.4,3.2h0c.9-1.1,1.6-2.5,2-3.7l1,.4c0,.1-.2.1-.4.1h0ZM123.8,187.9c-.7-.5-2.3-1.2-4.3-1.6v-.2c5.2.4,5.1,2.1,4.3,1.9h0ZM125.5,184.2h0c-.3.2-.5.4-.6.7-2.2-.6-4.1-1.8-5-3.7h.2c.9,1.5,3.1,2.5,5.3,3h0ZM123.9,181.1h-3.8l.3-.4h3.4v.4h0ZM123,185.7c-.3-.3-1.2-.8-2.2-1v-.2c3,0,2.8,1.4,2.2,1.2h0ZM126.1,178.6l.9.7c0,.1-.3.2-.5.2v9.4s-.3.3-.6.3h0v-10.2h0l.4-.4h-.1Z"/>
    <path class="st0" d="M132,188l2-.2h.7l1.9.2v.3h-4.7v-.3h.1ZM133.9,185.6v-5.1l-1.8.3v-.4l2.5-.6h.2v8.6h-.9v-2.8h0Z"/>
    <path class="st0" d="M138,184.9h3.1v.6h-3.1v-.6Z"/>
    <path class="st0" d="M142.6,188l2-.2h.7l1.9.2v.3h-4.7v-.3h.1ZM144.5,185.6v-5.1l-1.8.3v-.4l2.5-.6h.2v8.6h-.9v-2.8h0Z"/>
  </g>
  <g>
    <path class="st0" d="M346.2,188.4h-.1v-10.6l.7.4h8.2v.4h-8.3v9.6c0,.1-.2.3-.5.3h0ZM355,187.6h-8.5v-.4h8.5v.4ZM352.8,179.5l.8.7c0,.1-.2.1-.5.1-1.2,1.8-3.2,3.2-5.9,4v-.2c2.2-.9,4.3-2.4,5.2-4.2h-.1l.5-.4h0ZM349.9,179.2c-.4,1-1.3,2.3-2.4,3.2h-.1c.9-1.1,1.6-2.5,2-3.7l1,.4c0,.1-.2.1-.4.1h-.1ZM352.7,187c-.7-.5-2.4-1.2-4.3-1.6v-.2c5.2.4,5.1,2.1,4.3,1.9h0ZM354.4,183.4h0c-.3.2-.5.4-.6.7-2.2-.6-4.1-1.8-5-3.7h.2c.9,1.5,3.1,2.5,5.4,3h0ZM352.7,180.3h-3.8l.4-.4h3.4v.4h0ZM351.9,184.9c-.4-.3-1.2-.8-2.2-1v-.2c3,0,2.8,1.4,2.2,1.2h0ZM355,177.7l.9.7c0,.1-.3.2-.5.2v9.4s-.3.3-.5.3h0v-10.2h-.1l.4-.4h-.2Z"/>
    <path class="st0" d="M360.8,187.2l2-.2h.7l1.9.2v.3h-4.7v-.3h.1ZM362.8,184.8v-5.1l-1.8.3v-.4l2.5-.6h.2v8.6h-.9v-2.8h0Z"/>
    <path class="st0" d="M366.8,184.1h3v.6h-3v-.6Z"/>
    <path class="st0" d="M371,186.9c.8-.9,1.6-1.8,2.2-2.5,1.2-1.4,1.8-2.3,1.8-3.4s-.6-1.8-1.7-1.8-.9.1-1.4.4l.5-.4-.3,1.1c-.1.4-.3.6-.5.6s-.4-.1-.4-.4c.2-1.2,1.3-1.8,2.5-1.8s2.4.8,2.4,2.2-.6,2-2.4,3.7c-.4.4-1.2,1.3-2,2.1v-.4c.1,0,.1.2.1.2h4.7v.8h-5.3v-.6h0l-.2.2Z"/>
  </g>
  <g>
    <path class="st0" d="M238.4,371.4h-.1v-10.6l.7.4h8.2v.4h-8.3v9.6c0,.1-.2.3-.5.3h0ZM247.2,370.6h-8.6v-.4h8.6v.4ZM245,362.5l.8.7c0,.1-.2.1-.5.1-1.2,1.8-3.2,3.2-5.9,4v-.2c2.2-.9,4.3-2.4,5.2-4.2h-.1l.5-.4h0ZM242.1,362.1c-.4,1-1.3,2.3-2.4,3.2h-.1c.9-1.1,1.6-2.5,2-3.7l1,.4c0,.1-.2.1-.4.1h-.1ZM244.9,370c-.7-.5-2.4-1.2-4.3-1.6v-.2c5.2.4,5.1,2,4.3,1.9h0ZM246.6,366.3h0c-.3.2-.5.4-.6.7-2.2-.6-4.1-1.8-5-3.7h.2c.9,1.5,3.1,2.5,5.4,3h0ZM244.9,363.2h-3.8l.4-.4h3.4v.4h0ZM244.1,367.9c-.4-.3-1.2-.8-2.2-1v-.2c3,0,2.8,1.4,2.2,1.2h0ZM247.2,360.7l.9.7c0,.1-.3.2-.5.2v9.5s-.3.3-.6.3h0v-10.2h-.1l.4-.5h0Z"/>
    <path class="st0" d="M253.1,370.2l2-.2h.7l1.9.2v.3h-4.7v-.3h0ZM255,367.8v-5.1l-1.8.3v-.4l2.5-.6h.2v8.6h-.9v-2.8h0Z"/>
    <path class="st0" d="M259,367.1h3v.6h-3v-.6Z"/>
    <path class="st0" d="M263.2,369c0-.2.2-.4.5-.4s.4.2.5.6l.3,1.1-.4-.4c.4.2.8.4,1.4.4,1.4,0,2.1-.8,2.1-2s-.7-2-2.2-2h-.6v-.4h.5c1.2,0,2-.7,2-1.9s-.6-1.7-1.7-1.7-.9.1-1.3.4l.4-.3-.3,1c0,.4-.2.5-.5.5s-.4,0-.4-.3c.2-1.1,1.2-1.6,2.3-1.6s2.4.9,2.4,2.1-.8,2-2.4,2.2h0c1.8,0,2.6.8,2.6,2.1s-1.1,2.4-2.8,2.4-2.2-.6-2.4-1.6h0v-.2Z"/>
  </g>
  <polyline class="st2" points="253.2 337.2 231.8 337.2 231.8 296.7 231.8 270.7 231.8 249.6 252.8 249.6"/>
  <line class="st2" x1="231.8" y1="270.7" x2="253.2" y2="270.7"/>
</svg>