<?xml version="1.0" encoding="UTF-8"?>
<svg id="_图层_1" data-name="图层_1" xmlns="http://www.w3.org/2000/svg" version="1.1" viewBox="0 0 400 350">
  <!-- Generator: Adobe Illustrator 29.0.1, SVG Export Plug-In . SVG Version: 2.1.0 Build 192)  -->
  <defs>
    <style>
      .st0, .st1, .st2, .st3, .st4, .st5 {
        font-size: 12px;
      }

      .st0, .st1, .st2, .st6 {
        font-family: CambriaMath, 'Cambria Math';
      }

      .st0, .st4 {
        fill: #f2f2f2;
      }

      .st1, .st7 {
        fill: #838bc5;
      }

      .st8, .st9 {
        fill: #65c8d0;
      }

      .st8, .st7 {
        opacity: .3;
      }

      .st2 {
        fill: #fff;
      }

      .st9, .st10, .st11, .st12 {
        stroke-miterlimit: 10;
      }

      .st9, .st10, .st12 {
        stroke: #c6b4c3;
      }

      .st3, .st6, .st5, .st13 {
        fill: #c6b4c3;
      }

      .st3, .st4, .st14 {
        font-weight: 300;
      }

      .st3, .st14 {
        font-family: SourceHanSerifSC-Light-GBpc-EUC-H, 'Source Han Serif SC';
      }

      .st6 {
        font-size: 18px;
      }

      .st15 {
        fill: #c6b4c3;
      }

      .st4 {
        font-family: AdobeSongStd-Light-GBpc-EUC-H, 'Adobe Song Std';
      }

      .st10 {
        fill: #ba9bc9;
      }

      .st11 {
        stroke: #c6b4c3;
      }

      .st11, .st12 {
        fill: none;
      }

      .st16 {
        font-family: SourceHanSerifSC-Heavy-GBpc-EUC-H, 'Source Han Serif SC';
        font-weight: 800;
      }
    </style>
  </defs>
  <rect class="st10" x="59.3" y="155.7" width="103.8" height="103.8" rx="10" ry="10"/>
  <rect class="st9" x="196.9" y="30.2" width="103.8" height="103.8" rx="10" ry="10"/>
  <rect class="st12" x="78.3" y="61.8" width="65.7" height="40.7"/>
  <text/>
  <text class="st6" transform="translate(94.9 87.6) scale(1.2 1)"><tspan x="0" y="0" xml:space="preserve">f(     )  =</tspan></text>
  <text class="st3" transform="translate(89.8 55.3)"><tspan x="0" y="0">对应法则</tspan></text>
  <polyline class="st12" points="112 108.5 119.6 95.7 119.6 155.7"/>
  <polyline class="st12" points="184.1 83.9 196.9 91.4 136.9 91.4"/>
  <path class="st12" d="M119.6,95.7"/>
  <path class="st12" d="M127.2,108.5"/>
  <line class="st12" x1="180.3" y1="228.7" x2="323.5" y2="228.7"/>
  <line class="st12" x1="251.9" y1="157.1" x2="251.9" y2="270.8"/>
  <polygon class="st15" points="251.9 144.4 246.9 157.5 256.9 157.5 251.9 144.4"/>
  <polygon class="st13" points="336.6 228.7 323.5 223.8 323.5 233.7 336.6 228.7"/>
  <path class="st15" d="M317.4,243.9h1.1c0-.1.2-.1.2-.1h1.1v.4h-2.3v-.3h-.1ZM317.5,238.1h2.7v.4h-1.2c0,.1-.3.1-.3.1h-1.2v-.5h0ZM320.4,240.9l.2.2h0l-1.1,1.5-1.1,1.6h-.6l2.5-3.3h.1ZM320.3,241.4l-2.3-3.3h.9l1.9,2.7,2.4,3.4h-1l-2-2.8h.1ZM320.5,241.1h0l1.1-1.5,1.1-1.5h.5l-2.5,3.2-.2-.2h0ZM321,243.9h1.4c0-.1.2-.1.2-.1h1.2v.5h-2.8v-.3h0ZM321.4,238.1h2.3v.4h-1c0,.1-.2.1-.2.1h-1.1v-.5Z"/>
  <path class="st15" d="M260.4,170.8c0-.3.3-.4.6-.4s.6.2.8.4l.3.3-.4.2-.2-.2c.8-.2,1.4-1,1.9-2.2l.3-.9h0c0,0,1.1-3.1,1.1-3.1l1-2.9h.5l-2.5,6.7c-.7,1.9-1.5,2.7-2.5,2.7s-1-.2-1.1-.6h.2ZM260.4,162h2.9v.3h-1.3c0,0-.4,0-.4,0h-1.2v-.5h0ZM261.1,162h.9l2,5.5v.2l-.3,1-2.7-6.7h.1ZM264.6,162h2.4v.3h-1c0,0-.2,0-.2,0h-1.3v-.4h.1Z"/>
  <path class="st11" d="M209.9,166.7s5.8,82.7,42,82.6c36.2,0,42-82.6,42-82.6"/>
  <circle class="st11" cx="209.9" cy="166.7" r="2.5"/>
  <circle class="st11" cx="293.9" cy="166.7" r="2.5"/>
  <rect class="st7" x="163.1" y="166.7" width="177.6" height="82.6"/>
  <rect class="st8" x="209.9" y="134" width="84" height="171.6"/>
  <text class="st5" transform="translate(86.9 274.7)"><tspan class="st14" x="0" y="0">定义域 </tspan><tspan class="st16" x="39.1" y="0">D</tspan></text>
  <text class="st3" transform="translate(239.9 23.1)"><tspan x="0" y="0">值域</tspan></text>
  <text class="st0" transform="translate(114.7 173.4)"><tspan x="0" y="0">x</tspan></text>
  <text class="st0" transform="translate(120.5 177.4) scale(.6)"><tspan x="0" y="0">0</tspan></text>
  <text class="st4" transform="translate(69.3 248.1)"><tspan x="0" y="0">自变量</tspan></text>
  <text class="st4" transform="translate(257.5 47.9)"><tspan x="0" y="0">因变量</tspan></text>
  <text class="st1" transform="translate(114.7 83.1)"><tspan x="0" y="0">x</tspan></text>
  <text class="st1" transform="translate(120.5 87.1) scale(.6)"><tspan x="0" y="0">0</tspan></text>
  <text class="st2" transform="translate(207.5 83.1)"><tspan x="0" y="0">y</tspan></text>
  <text class="st2" transform="translate(213.5 87.1) scale(.6)"><tspan x="0" y="0">0</tspan></text>
  <text class="st3" transform="translate(189.2 324.9)"><tspan x="0" y="0">图 2</tspan></text>
</svg>