<?xml version="1.0" encoding="UTF-8"?>
<svg id="_图层_1" data-name="图层_1" xmlns="http://www.w3.org/2000/svg" version="1.1" xmlns:xlink="http://www.w3.org/1999/xlink" viewBox="0 0 290 290">
  <!-- Generator: Adobe Illustrator 29.0.1, SVG Export Plug-In . SVG Version: 2.1.0 Build 192)  -->
  <defs>
    <style>
      .st0 {
        fill: #cec8d4;
      }

      .st1 {
        fill: url(#_未命名的渐变_151);
      }

      .st2 {
        fill: url(#_未命名的渐变_8);
      }

      .st3 {
        fill: url(#_未命名的渐变_5);
      }

      .st4 {
        fill: url(#_未命名的渐变_4);
      }

      .st4, .st5, .st6 {
        isolation: isolate;
      }

      .st4, .st6 {
        mix-blend-mode: overlay;
      }

      .st7 {
        fill: url(#_未命名的渐变_11);
      }

      .st8 {
        fill: #ca61a9;
      }

      .st9 {
        fill: #438fd4;
      }

      .st10 {
        fill: url(#_未命名的渐变_9);
      }

      .st11 {
        fill: #cdc7d3;
      }

      .st12 {
        fill: #3c8dd1;
      }

      .st13 {
        fill: url(#_未命名的渐变_6);
      }

      .st14 {
        fill: #cfcad6;
      }

      .st15 {
        fill: #ca5fa8;
      }

      .st16 {
        fill: #cbc5d1;
      }

      .st17 {
        fill: #cd61aa;
      }

      .st18 {
        fill: #3f8dd2;
      }

      .st19 {
        fill: url(#_未命名的渐变_3);
      }

      .st20 {
        fill: url(#_未命名的渐变_13);
      }

      .st21 {
        fill: url(#_未命名的渐变);
      }

      .st22 {
        fill: #448ed2;
      }

      .st23 {
        fill: url(#_未命名的渐变_12);
      }

      .st24 {
        fill: #418fd3;
      }

      .st25 {
        fill: #3e8fd4;
      }

      .st26 {
        display: none;
      }

      .st27 {
        fill: #cd62ab;
      }

      .st28 {
        fill: #cc60a9;
      }

      .st29 {
        fill: #cc61aa;
      }

      .st30 {
        fill: #cb60a9;
      }

      .st31 {
        fill: #418dd1;
      }

      .st6 {
        fill: url(#_未命名的渐变_2);
        opacity: .6;
      }

      .st32 {
        fill: #cac5d1;
      }

      .st33 {
        fill: url(#_未命名的渐变_10);
      }

      .st34 {
        fill: #ce62ab;
      }

      .st35 {
        fill: #428dd1;
      }
    </style>
    <linearGradient id="_未命名的渐变" data-name="未命名的渐变" x1="-252.8" y1="62.8" x2="-252.8" y2="86.8" gradientTransform="translate(2456.7 -573.2) scale(9.1)" gradientUnits="userSpaceOnUse">
      <stop offset="0" stop-color="#c5da4a"/>
      <stop offset="1" stop-color="#8d9909"/>
    </linearGradient>
    <linearGradient id="_未命名的渐变_2" data-name="未命名的渐变 2" x1="-241.7" y1="76.5" x2="-244.4" y2="76.6" gradientTransform="translate(2456.7 -573.2) scale(9.1)" gradientUnits="userSpaceOnUse">
      <stop offset=".4" stop-color="#000"/>
      <stop offset="1" stop-color="#000" stop-opacity="0"/>
    </linearGradient>
    <linearGradient id="_未命名的渐变_3" data-name="未命名的渐变 3" x1="-264.1" y1="90.9" x2="-244" y2="90.9" gradientTransform="translate(2456.7 -573.2) scale(9.1)" gradientUnits="userSpaceOnUse">
      <stop offset="0" stop-color="#ecf7a8"/>
      <stop offset="1" stop-color="#ebf0c0"/>
    </linearGradient>
    <linearGradient id="_未命名的渐变_4" data-name="未命名的渐变 4" x1="-254" y1="87.5" x2="-254" y2="88.9" gradientTransform="translate(2456.7 -573.2) scale(9.1)" gradientUnits="userSpaceOnUse">
      <stop offset="0" stop-color="#fff"/>
      <stop offset="1" stop-color="#fff" stop-opacity="0"/>
    </linearGradient>
    <linearGradient id="_未命名的渐变_5" data-name="未命名的渐变 5" x1="-265.6" y1="77.9" x2="-262.8" y2="77.9" gradientTransform="translate(2456.7 -573.2) scale(9.1)" gradientUnits="userSpaceOnUse">
      <stop offset="0" stop-color="#63862c"/>
      <stop offset="1" stop-color="#7eab51"/>
    </linearGradient>
    <radialGradient id="_未命名的渐变_6" data-name="未命名的渐变 6" cx="-313.2" cy="28.6" fx="-313.2" fy="28.6" r="1" gradientTransform="translate(-250.6 -18614.7) rotate(-90) scale(60.2 10.6)" gradientUnits="userSpaceOnUse">
      <stop offset="0" stop-color="#4e7534"/>
      <stop offset="1" stop-color="#690" stop-opacity="0"/>
    </radialGradient>
    <linearGradient id="_未命名的渐变_151" data-name="未命名的渐变 151" x1="-264.3" y1="90.9" x2="-243.8" y2="90.9" gradientTransform="translate(2456.7 -573.2) scale(9.1)" gradientUnits="userSpaceOnUse">
      <stop offset="0" stop-color="#438036"/>
      <stop offset="1" stop-color="#54b041"/>
    </linearGradient>
    <linearGradient id="_未命名的渐变_8" data-name="未命名的渐变 8" x1="110" y1="190.7" x2="138.3" y2="190.7" gradientTransform="translate(0 289.9) scale(1 -1)" gradientUnits="userSpaceOnUse">
      <stop offset="0" stop-color="#4e7534"/>
      <stop offset="1" stop-color="#690" stop-opacity="0"/>
    </linearGradient>
    <linearGradient id="_未命名的渐变_9" data-name="未命名的渐变 9" x1="195" y1="190.7" x2="166.7" y2="190.7" gradientTransform="translate(0 289.9) scale(1 -1)" gradientUnits="userSpaceOnUse">
      <stop offset="0" stop-color="#4e7534"/>
      <stop offset="1" stop-color="#690" stop-opacity="0"/>
    </linearGradient>
    <linearGradient id="_未命名的渐变_10" data-name="未命名的渐变 10" x1="152.5" y1="176.6" x2="152.5" y2="119.9" gradientTransform="translate(0 289.9) scale(1 -1)" gradientUnits="userSpaceOnUse">
      <stop offset="0" stop-color="#4e7534"/>
      <stop offset="1" stop-color="#690" stop-opacity="0"/>
    </linearGradient>
    <linearGradient id="_未命名的渐变_11" data-name="未命名的渐变 11" x1="124.2" y1="204.9" x2="124.2" y2="176.6" gradientTransform="translate(0 289.9) scale(1 -1)" gradientUnits="userSpaceOnUse">
      <stop offset="0" stop-color="#4e7534"/>
      <stop offset="1" stop-color="#690" stop-opacity=".3"/>
    </linearGradient>
    <linearGradient id="_未命名的渐变_12" data-name="未命名的渐变 12" x1="180.8" y1="204.9" x2="180.8" y2="176.6" gradientTransform="translate(0 289.9) scale(1 -1)" gradientUnits="userSpaceOnUse">
      <stop offset="0" stop-color="#4e7534"/>
      <stop offset="1" stop-color="#690" stop-opacity=".3"/>
    </linearGradient>
    <linearGradient id="_未命名的渐变_13" data-name="未命名的渐变 13" x1="152.5" y1="119.9" x2="152.5" y2="176.6" gradientTransform="translate(0 289.9) scale(1 -1)" gradientUnits="userSpaceOnUse">
      <stop offset="0" stop-color="#4e7534"/>
      <stop offset="1" stop-color="#690" stop-opacity="0"/>
    </linearGradient>
  </defs>
  <g class="st5">
    <g id="_图层_11" data-name="_图层_1">
      <path class="st21" d="M70.2,18.2h154.1c10,0,18.1,8.1,18.1,18.1v199.4H70.2V18.2Z"/>
      <path class="st6" d="M70.2,18.2h154.1c10,0,18.1,8.1,18.1,18.1v199.4H70.2V18.2Z"/>
      <path class="st19" d="M47.6,240.2h194.8v22.7h-4.5l-4.5,4.5H47.6v-27.2Z"/>
      <path class="st4" d="M47.6,240.2h194.8v22.7h-4.5l-4.5,4.5H47.6v-27.2Z"/>
      <path class="st3" d="M56.6,18.2c-7.5,0-13.6,6.1-13.6,13.6v222h9.1c0-5,4.1-9.1,9.1-9.1h9.1V18.2h-13.7Z"/>
      <path class="st13" d="M56.6,18.2c-7.5,0-13.6,6.1-13.6,13.6v222h9.1c0-5,4.1-9.1,9.1-9.1h9.1V18.2h-13.7Z"/>
      <path class="st1" d="M56.6,235.7c-7.5,0-13.6,6.1-13.6,13.6v9.1c0,7.5,6.1,13.6,13.6,13.6h175.9c5.9,0,9.9-3,9.9-9.1H61.2c-5,0-9.1-4.1-9.1-9.1s4.1-9.1,9.1-9.1h181.2v-9.1H56.6Z"/>
      <g class="st26">
        <path class="st0" d="M89.7,37l8.3,8.3c2.3,2.3,2.3,5.9,0,8.2h0c-2.3,2.3-5.9,2.3-8.2,0l-8.3-8.3c-2.3-2.3-2.3-5.9,0-8.2h0c2.3-2.3,5.9-2.3,8.2,0Z"/>
        <path class="st27" d="M81.7,118.7h0c2.2-2.2,5.9-2.2,8.2,0l8.3,8.3c2.3,2.3,2.3,5.9,0,8.2h0c-2.2,2.2-5.9,2.2-8.2,0l-8.3-8.3c-2.3-2.3-2.3-5.9,0-8.2Z"/>
        <path class="st25" d="M89.7,200.2l8.3,8.3c2.3,2.3,2.3,5.9,0,8.2h0c-2.3,2.3-5.9,2.3-8.2,0l-8.3-8.3c-2.3-2.3-2.3-5.9,0-8.2h0c2.3-2.3,5.9-2.3,8.2,0Z"/>
        <path class="st16" d="M188.8,37l8.3,8.3c2.3,2.3,2.3,5.9,0,8.2h0c-2.3,2.3-5.9,2.3-8.2,0l-8.3-8.3c-2.3-2.3-2.3-5.9,0-8.2h0c2.3-2.3,5.9-2.3,8.2,0Z"/>
        <path class="st30" d="M180.7,118.7h0c2.2-2.2,5.9-2.2,8.2,0l8.3,8.3c2.3,2.3,2.3,5.9,0,8.2h0c-2.2,2.2-5.9,2.2-8.2,0l-8.3-8.3c-2.3-2.3-2.3-5.9,0-8.2Z"/>
        <path class="st12" d="M188.8,200.2l8.3,8.3c2.3,2.3,2.3,5.9,0,8.2h0c-2.3,2.3-5.9,2.3-8.2,0l-8.3-8.3c-2.3-2.3-2.3-5.9,0-8.2h0c2.3-2.3,5.9-2.3,8.2,0Z"/>
        <path class="st34" d="M119.3,37l-8.3,8.3c-2.3,2.3-2.3,5.9,0,8.2h0c2.3,2.3,5.9,2.3,8.2,0l8.3-8.3c2.3-2.3,2.3-5.9,0-8.2h0c-2.3-2.3-5.9-2.3-8.2,0Z"/>
        <path class="st24" d="M119.3,118.7l-8.3,8.3c-2.3,2.3-2.3,5.9,0,8.2h0c2.3,2.3,5.9,2.3,8.2,0l8.3-8.3c2.3-2.3,2.3-5.9,0-8.2h0c-2.3-2.3-5.9-2.3-8.2,0Z"/>
        <path class="st11" d="M119.3,200.2l-8.3,8.3c-2.3,2.3-2.3,5.9,0,8.2h0c2.3,2.3,5.9,2.3,8.2,0l8.3-8.3c2.3-2.3,2.3-5.9,0-8.2h0c-2.3-2.3-5.9-2.3-8.2,0Z"/>
        <path class="st29" d="M154.1,78.8l-8.3,8.3c-2.3,2.3-2.3,5.9,0,8.2h0c2.3,2.3,5.9,2.3,8.2,0l8.3-8.3c2.3-2.3,2.3-5.9,0-8.2h0c-2.3-2.3-5.9-2.3-8.2,0Z"/>
        <path class="st32" d="M214.6,78.7h0c2.2-2.2,5.9-2.2,8.2,0l8.3,8.3c2.3,2.3,2.3,5.9,0,8.2h0c-2.2,2.2-5.9,2.2-8.2,0l-8.3-8.3c-2.3-2.3-2.3-5.9,0-8.2Z"/>
        <path class="st35" d="M194.8,81.3h-11.8c-3.2,0-5.8,2.6-5.8,5.8h0c0,3.2,2.6,5.8,5.8,5.8h11.8c3.2,0,5.8-2.6,5.8-5.8h0c0-3.2-2.6-5.8-5.8-5.8Z"/>
        <path class="st11" d="M125.1,81.3h-11.8c-3.2,0-5.8,2.6-5.8,5.8h0c0,3.2,2.6,5.8,5.8,5.8h11.8c3.2,0,5.8-2.6,5.8-5.8h0c0-3.2-2.6-5.8-5.8-5.8Z"/>
        <path class="st18" d="M154.1,160.4l-8.3,8.3c-2.3,2.3-2.3,5.9,0,8.2h0c2.3,2.3,5.9,2.3,8.2,0l8.3-8.3c2.3-2.3,2.3-5.9,0-8.2h0c-2.3-2.3-5.9-2.3-8.2,0Z"/>
        <path class="st15" d="M222.7,160.3l8.3,8.3c2.3,2.3,2.3,5.9,0,8.2h0c-2.3,2.3-5.9,2.3-8.2,0l-8.3-8.3c-2.3-2.3-2.3-5.9,0-8.2h0c2.3-2.3,5.9-2.3,8.2,0Z"/>
        <path class="st9" d="M93.1,92.9v-11.8c0-3.2-2.6-5.8-5.8-5.8h0c-3.2,0-5.8,2.6-5.8,5.8v11.8c0,3.2,2.6,5.8,5.8,5.8h0c3.2,0,5.8-2.6,5.8-5.8Z"/>
        <path class="st22" d="M159.9,39.5h-11.8c-3.2,0-5.8,2.6-5.8,5.8h0c0,3.2,2.6,5.8,5.8,5.8h11.8c3.2,0,5.8-2.6,5.8-5.8h0c0-3.2-2.6-5.8-5.8-5.8Z"/>
        <path class="st16" d="M194.8,162.8h-11.8c-3.2,0-5.8,2.6-5.8,5.8h0c0,3.2,2.6,5.8,5.8,5.8h11.8c3.2,0,5.8-2.6,5.8-5.8h0c0-3.2-2.6-5.8-5.8-5.8Z"/>
        <path class="st14" d="M159.9,121.2h-11.8c-3.2,0-5.8,2.6-5.8,5.8h0c0,3.2,2.6,5.8,5.8,5.8h11.8c3.2,0,5.8-2.6,5.8-5.8h0c0-3.2-2.6-5.8-5.8-5.8Z"/>
        <path class="st28" d="M159.9,202.7h-11.8c-3.2,0-5.8,2.6-5.8,5.8h0c0,3.2,2.6,5.8,5.8,5.8h11.8c3.2,0,5.8-2.6,5.8-5.8h0c0-3.2-2.6-5.8-5.8-5.8Z"/>
        <path class="st17" d="M125.1,162.8h-11.8c-3.2,0-5.8,2.6-5.8,5.8h0c0,3.2,2.6,5.8,5.8,5.8h11.8c3.2,0,5.8-2.6,5.8-5.8h0c0-3.2-2.6-5.8-5.8-5.8Z"/>
        <path class="st8" d="M228.6,51.1v-11.8c0-3.2-2.6-5.8-5.8-5.8h0c-3.2,0-5.8,2.6-5.8,5.8v11.8c0,3.2,2.6,5.8,5.8,5.8h0c3.2,0,5.8-2.6,5.8-5.8Z"/>
        <path class="st31" d="M228.6,132.8v-11.8c0-3.2-2.6-5.8-5.8-5.8h0c-3.2,0-5.8,2.6-5.8,5.8v11.8c0,3.2,2.6,5.8,5.8,5.8h0c3.2,0,5.8-2.6,5.8-5.8Z"/>
        <path class="st32" d="M228.6,214.4v-11.8c0-3.2-2.6-5.8-5.8-5.8h0c-3.2,0-5.8,2.6-5.8,5.8v11.8c0,3.2,2.6,5.8,5.8,5.8h0c3.2,0,5.8-2.6,5.8-5.8Z"/>
        <path class="st0" d="M93.1,174.5v-11.8c0-3.2-2.6-5.8-5.8-5.8h0c-3.2,0-5.8,2.6-5.8,5.8v11.8c0,3.2,2.6,5.8,5.8,5.8h0c3.2,0,5.8-2.6,5.8-5.8Z"/>
      </g>
      <rect class="st2" x="110" y="85" width="28.3" height="28.3"/>
      <rect class="st10" x="166.7" y="85" width="28.3" height="28.3"/>
      <polygon class="st33" points="180.8 127.5 180.8 170 166.7 170 166.7 155.8 138.3 155.8 138.3 170 124.2 170 124.2 127.5 138.3 127.5 138.3 113.3 166.7 113.3 166.7 127.5 180.8 127.5"/>
      <rect class="st7" x="110" y="85" width="28.3" height="28.3"/>
      <rect class="st23" x="166.7" y="85" width="28.3" height="28.3"/>
      <polygon class="st20" points="180.8 127.5 180.8 170 166.7 170 166.7 155.8 138.3 155.8 138.3 170 124.2 170 124.2 127.5 138.3 127.5 138.3 113.3 166.7 113.3 166.7 127.5 180.8 127.5"/>
    </g>
  </g>
</svg>